<mxfile host="app.diagrams.net" modified="2022-06-28T11:54:13.405Z" agent="5.0 (X11; Linux x86_64) AppleWebKit/537.36 (KHTML, like Gecko) Chrome/103.0.0.0 Safari/537.36" etag="Ol84bGrylk6McUM1qxBI" version="20.0.3" type="github">
  <diagram id="NhHBh4b54ndjiprj9Bl1" name="Page-1">
    <mxGraphModel dx="1355" dy="773" grid="1" gridSize="10" guides="1" tooltips="1" connect="1" arrows="1" fold="1" page="1" pageScale="1" pageWidth="850" pageHeight="1100" math="0" shadow="0">
      <root>
        <mxCell id="0" />
        <mxCell id="1" parent="0" />
        <mxCell id="FLTwSqdSPj58lzpOjfa_-6" value="" style="edgeStyle=orthogonalEdgeStyle;rounded=0;orthogonalLoop=1;jettySize=auto;html=1;fontSize=16;" edge="1" parent="1" source="FLTwSqdSPj58lzpOjfa_-2" target="FLTwSqdSPj58lzpOjfa_-4">
          <mxGeometry relative="1" as="geometry" />
        </mxCell>
        <mxCell id="FLTwSqdSPj58lzpOjfa_-2" value="" style="shape=image;imageAspect=0;aspect=fixed;verticalLabelPosition=bottom;verticalAlign=top;image=data:image/svg+xml,PHN2ZyB4bWxucz0iaHR0cDovL3d3dy53My5vcmcvMjAwMC9zdmciIGZpbGw9Im5vbmUiIHZpZXdCb3g9IjAgMCA0OCA0OCIgaGVpZ2h0PSI0OCIgd2lkdGg9IjQ4Ij4mI3hhOzxyZWN0IGZpbGwtb3BhY2l0eT0iMC4wMSIgZmlsbD0id2hpdGUiIGhlaWdodD0iNDgiIHdpZHRoPSI0OCIvPiYjeGE7PHBhdGggc3Ryb2tlLWxpbmVqb2luPSJyb3VuZCIgc3Ryb2tlLWxpbmVjYXA9InJvdW5kIiBzdHJva2Utd2lkdGg9IjQiIHN0cm9rZT0iYmxhY2siIGQ9Ik00NC4wMDAxIDExQzQ0LjAwMDEgMTEgNDQgMzYuMDYyMyA0NCAzOEM0NCA0MS4zMTM3IDM1LjA0NTcgNDQgMjQgNDRDMTIuOTU0MyA0NCA0LjAwMDAzIDQxLjMxMzcgNC4wMDAwMyAzOEM0LjAwMDAzIDM2LjE0MjMgNCAxMSA0IDExIi8+JiN4YTs8cGF0aCBzdHJva2UtbGluZWpvaW49InJvdW5kIiBzdHJva2UtbGluZWNhcD0icm91bmQiIHN0cm9rZS13aWR0aD0iNCIgc3Ryb2tlPSJibGFjayIgZD0iTTQ0IDI5QzQ0IDMyLjMxMzcgMzUuMDQ1NyAzNSAyNCAzNUMxMi45NTQzIDM1IDQgMzIuMzEzNyA0IDI5Ii8+JiN4YTs8cGF0aCBzdHJva2UtbGluZWpvaW49InJvdW5kIiBzdHJva2UtbGluZWNhcD0icm91bmQiIHN0cm9rZS13aWR0aD0iNCIgc3Ryb2tlPSJibGFjayIgZD0iTTQ0IDIwQzQ0IDIzLjMxMzcgMzUuMDQ1NyAyNiAyNCAyNkMxMi45NTQzIDI2IDQgMjMuMzEzNyA0IDIwIi8+JiN4YTs8ZWxsaXBzZSBzdHJva2UtbGluZWpvaW49InJvdW5kIiBzdHJva2UtbGluZWNhcD0icm91bmQiIHN0cm9rZS13aWR0aD0iNCIgc3Ryb2tlPSJibGFjayIgZmlsbD0iIzJGODhGRiIgcnk9IjYiIHJ4PSIyMCIgY3k9IjEwIiBjeD0iMjQiLz4mI3hhOzwvc3ZnPg==;" vertex="1" parent="1">
          <mxGeometry x="50" y="225" width="130" height="130" as="geometry" />
        </mxCell>
        <mxCell id="FLTwSqdSPj58lzpOjfa_-3" value="&lt;b&gt;&lt;font style=&quot;font-size: 16px;&quot;&gt;Data Ingestion&lt;/font&gt;&lt;/b&gt;" style="text;html=1;align=center;verticalAlign=middle;resizable=0;points=[];autosize=1;strokeColor=none;fillColor=none;" vertex="1" parent="1">
          <mxGeometry x="45" y="345" width="130" height="30" as="geometry" />
        </mxCell>
        <mxCell id="FLTwSqdSPj58lzpOjfa_-8" value="" style="edgeStyle=orthogonalEdgeStyle;rounded=0;orthogonalLoop=1;jettySize=auto;html=1;fontSize=16;" edge="1" parent="1" source="FLTwSqdSPj58lzpOjfa_-4" target="FLTwSqdSPj58lzpOjfa_-7">
          <mxGeometry relative="1" as="geometry" />
        </mxCell>
        <mxCell id="FLTwSqdSPj58lzpOjfa_-4" value="" style="shape=image;imageAspect=0;aspect=fixed;verticalLabelPosition=bottom;verticalAlign=top;fontSize=16;image=data:image/svg+xml,PHN2ZyB4bWxucz0iaHR0cDovL3d3dy53My5vcmcvMjAwMC9zdmciIHZpZXdCb3g9IjAgMCAyNCAyNCIgaGVpZ2h0PSIyNCIgd2lkdGg9IjI0Ij4mI3hhOyAgPHBhdGggZD0iTTguNTk2MDg1NTUsMjAuMzAzMTkyMyBMNi41LDE4LjIwNzEwNjggTDQuNDAzOTE0NDUsMjAuMzAzMTkyMyBDNC45ODgyMDQ3MiwyMC43NDA3OTgyIDUuNzEzODMyNDUsMjEgNi41LDIxIEM3LjI4NjE2NzU1LDIxIDguMDExNzk1MjgsMjAuNzQwNzk4MiA4LjU5NjA4NTU1LDIwLjMwMzE5MjMgTDguNTk2MDg1NTUsMjAuMzAzMTkyMyBaIE05LjMwMzE5MjMzLDE5LjU5NjA4NTUgQzkuNzQwNzk4MjMsMTkuMDExNzk1MyAxMCwxOC4yODYxNjc2IDEwLDE3LjUgQzEwLDE2LjcxMzgzMjQgOS43NDA3OTgyMywxNS45ODgyMDQ3IDkuMzAzMTkyMzMsMTUuNDAzOTE0NSBMNy4yMDcxMDY3OCwxNy41IEw5LjMwMzE5MjMzLDE5LjU5NjA4NTUgTDkuMzAzMTkyMzMsMTkuNTk2MDg1NSBaIE0zLjY5NjgwNzY3LDE1LjQwMzkxNDUgQzMuMjU5MjAxNzcsMTUuOTg4MjA0NyAzLDE2LjcxMzgzMjQgMywxNy41IEMzLDE4LjI4NjE2NzYgMy4yNTkyMDE3NywxOS4wMTE3OTUzIDMuNjk2ODA3NjcsMTkuNTk2MDg1NSBMNS43OTI4OTMyMiwxNy41IEwzLjY5NjgwNzY3LDE1LjQwMzkxNDUgTDMuNjk2ODA3NjcsMTUuNDAzOTE0NSBaIE00LjQwMzkxNDQ1LDE0LjY5NjgwNzcgTDYuNSwxNi43OTI4OTMyIEw4LjU5NjA4NTU1LDE0LjY5NjgwNzcgQzguMDExNzk1MjgsMTQuMjU5MjAxOCA3LjI4NjE2NzU1LDE0IDYuNSwxNCBDNS43MTM4MzI0NSwxNCA0Ljk4ODIwNDcyLDE0LjI1OTIwMTggNC40MDM5MTQ0NSwxNC42OTY4MDc3IEw0LjQwMzkxNDQ1LDE0LjY5NjgwNzcgWiBNNi41LDExIEM0LjAxNDcxODYzLDExIDIsOC45ODUyODEzNyAyLDYuNSBDMiw0LjAxNDcxODYzIDQuMDE0NzE4NjMsMiA2LjUsMiBDOC45ODUyODEzNywyIDExLDQuMDE0NzE4NjMgMTEsNi41IEMxMSw4Ljk4NTI4MTM3IDguOTg1MjgxMzcsMTEgNi41LDExIFogTTYuNSwxMCBDOC40MzI5OTY2MiwxMCAxMCw4LjQzMjk5NjYyIDEwLDYuNSBDMTAsNC41NjcwMDMzOCA4LjQzMjk5NjYyLDMgNi41LDMgQzQuNTY3MDAzMzgsMyAzLDQuNTY3MDAzMzggMyw2LjUgQzMsOC40MzI5OTY2MiA0LjU2NzAwMzM4LDEwIDYuNSwxMCBaIE03LjYwOTU2NTYsNS4xODc2NTI0OCBDNy43ODIwNzAzNyw0Ljk3MjAyMTUxIDguMDk2NzE2NTYsNC45MzcwNjA4MiA4LjMxMjM0NzUyLDUuMTA5NTY1NiBDOC41Mjc5Nzg0OSw1LjI4MjA3MDM3IDguNTYyOTM5MTgsNS41OTY3MTY1NiA4LjM5MDQzNDQsNS44MTIzNDc1MiBMNi4zOTA0MzQ0LDguMzEyMzQ3NTIgQzYuMjA0MjcxNzUsOC41NDUwNTA4NCA1Ljg1NzE2ODQyLDguNTY0Mjc1MjEgNS42NDY0NDY2MSw4LjM1MzU1MzM5IEw0LjY0NjQ0NjYxLDcuMzUzNTUzMzkgQzQuNDUxMTg0NDYsNy4xNTgyOTEyNCA0LjQ1MTE4NDQ2LDYuODQxNzA4NzYgNC42NDY0NDY2MSw2LjY0NjQ0NjYxIEM0Ljg0MTcwODc2LDYuNDUxMTg0NDYgNS4xNTgyOTEyNCw2LjQ1MTE4NDQ2IDUuMzUzNTUzMzksNi42NDY0NDY2MSBMNS45NTg1NDA1Niw3LjI1MTQzMzc4IEw3LjYwOTU2NTYsNS4xODc2NTI0OCBaIE0xMy41LDYgQzEzLjIyMzg1NzYsNiAxMyw1Ljc3NjE0MjM3IDEzLDUuNSBDMTMsNS4yMjM4NTc2MyAxMy4yMjM4NTc2LDUgMTMuNSw1IEwyMS41LDUgQzIxLjc3NjE0MjQsNSAyMiw1LjIyMzg1NzYzIDIyLDUuNSBDMjIsNS43NzYxNDIzNyAyMS43NzYxNDI0LDYgMjEuNSw2IEwxMy41LDYgWiBNMTMuNSw4IEMxMy4yMjM4NTc2LDggMTMsNy43NzYxNDIzNyAxMyw3LjUgQzEzLDcuMjIzODU3NjMgMTMuMjIzODU3Niw3IDEzLjUsNyBMMTkuNSw3IEMxOS43NzYxNDI0LDcgMjAsNy4yMjM4NTc2MyAyMCw3LjUgQzIwLDcuNzc2MTQyMzcgMTkuNzc2MTQyNCw4IDE5LjUsOCBMMTMuNSw4IFogTTYuNSwyMiBDNC4wMTQ3MTg2MywyMiAyLDE5Ljk4NTI4MTQgMiwxNy41IEMyLDE1LjAxNDcxODYgNC4wMTQ3MTg2MywxMyA2LjUsMTMgQzguOTg1MjgxMzcsMTMgMTEsMTUuMDE0NzE4NiAxMSwxNy41IEMxMSwxOS45ODUyODE0IDguOTg1MjgxMzcsMjIgNi41LDIyIFogTTEzLjUsMTcgQzEzLjIyMzg1NzYsMTcgMTMsMTYuNzc2MTQyNCAxMywxNi41IEMxMywxNi4yMjM4NTc2IDEzLjIyMzg1NzYsMTYgMTMuNSwxNiBMMjEuNSwxNiBDMjEuNzc2MTQyNCwxNiAyMiwxNi4yMjM4NTc2IDIyLDE2LjUgQzIyLDE2Ljc3NjE0MjQgMjEuNzc2MTQyNCwxNyAyMS41LDE3IEwxMy41LDE3IFogTTEzLjUsMTkgQzEzLjIyMzg1NzYsMTkgMTMsMTguNzc2MTQyNCAxMywxOC41IEMxMywxOC4yMjM4NTc2IDEzLjIyMzg1NzYsMTggMTMuNSwxOCBMMTkuNSwxOCBDMTkuNzc2MTQyNCwxOCAyMCwxOC4yMjM4NTc2IDIwLDE4LjUgQzIwLDE4Ljc3NjE0MjQgMTkuNzc2MTQyNCwxOSAxOS41LDE5IEwxMy41LDE5IFoiLz4mI3hhOzwvc3ZnPg==;" vertex="1" parent="1">
          <mxGeometry x="205" y="230" width="120" height="120" as="geometry" />
        </mxCell>
        <mxCell id="FLTwSqdSPj58lzpOjfa_-5" value="&lt;b&gt;Exploration &amp;amp;&lt;br&gt;&amp;nbsp;Validation&lt;/b&gt;" style="text;html=1;align=center;verticalAlign=middle;resizable=0;points=[];autosize=1;strokeColor=none;fillColor=none;fontSize=16;" vertex="1" parent="1">
          <mxGeometry x="195" y="340" width="130" height="50" as="geometry" />
        </mxCell>
        <mxCell id="FLTwSqdSPj58lzpOjfa_-13" value="" style="edgeStyle=orthogonalEdgeStyle;rounded=0;orthogonalLoop=1;jettySize=auto;html=1;fontSize=16;" edge="1" parent="1" source="FLTwSqdSPj58lzpOjfa_-7" target="FLTwSqdSPj58lzpOjfa_-12">
          <mxGeometry relative="1" as="geometry" />
        </mxCell>
        <mxCell id="FLTwSqdSPj58lzpOjfa_-7" value="" style="shape=image;imageAspect=0;aspect=fixed;verticalLabelPosition=bottom;verticalAlign=top;fontSize=16;image=data:image/svg+xml,PHN2ZyB4bWxuczp4bGluaz0iaHR0cDovL3d3dy53My5vcmcvMTk5OS94bGluayIgeG1sbnM9Imh0dHA6Ly93d3cudzMub3JnLzIwMDAvc3ZnIiB2aWV3Qm94PSIwIDAgNzAwIDcwMCIgdmVyc2lvbj0iMS4xIiBoZWlnaHQ9IjcwMHB0IiB3aWR0aD0iNzAwcHQiPiYjeGE7IDxkZWZzPiYjeGE7ICA8c3ltYm9sIG92ZXJmbG93PSJ2aXNpYmxlIiBpZD0ibyI+JiN4YTsgICA8cGF0aCBkPSJtMzEuMjY2LTEuODc1Yy0xLjYxNzIgMC44NDM3NS0zLjI5NjkgMS40NzY2LTUuMDQ2OSAxLjg5MDYtMS43NDIyIDAuNDI1NzgtMy41NTg2IDAuNjQwNjItNS40NTMxIDAuNjQwNjItNS42NjggMC0xMC4xNTYtMS41ODItMTMuNDY5LTQuNzUtMy4zMTI1LTMuMTY0MS00Ljk2ODgtNy40NjA5LTQuOTY4OC0xMi44OTEgMC01LjQzNzUgMS42NTYyLTkuNzM4MyA0Ljk2ODgtMTIuOTA2IDMuMzEyNS0zLjE2NDEgNy44MDA4LTQuNzUgMTMuNDY5LTQuNzUgMS44OTQ1IDAgMy43MTA5IDAuMjE0ODQgNS40NTMxIDAuNjQwNjIgMS43NSAwLjQyOTY5IDMuNDI5NyAxLjA1ODYgNS4wNDY5IDEuODkwNnY3LjA0NjljLTEuNjI1LTEuMTEzMy0zLjIzMDUtMS45MjU4LTQuODEyNS0yLjQzNzUtMS41NzQyLTAuNTE5NTMtMy4yMzQ0LTAuNzgxMjUtNC45ODQ0LTAuNzgxMjUtMy4xMzY3IDAtNS42MDE2IDEuMDA3OC03LjM5MDYgMy4wMTU2LTEuNzkzIDItMi42ODc1IDQuNzYxNy0yLjY4NzUgOC4yODEyIDAgMy41MTE3IDAuODk0NTMgNi4yNzM0IDIuNjg3NSA4LjI4MTIgMS43ODkxIDIgNC4yNTM5IDMgNy4zOTA2IDMgMS43NSAwIDMuNDEwMi0wLjI1MzkxIDQuOTg0NC0wLjc2NTYyIDEuNTgyLTAuNTE5NTMgMy4xODc1LTEuMzMyIDQuODEyNS0yLjQzNzV6Ii8+JiN4YTsgIDwvc3ltYm9sPiYjeGE7ICA8c3ltYm9sIG92ZXJmbG93PSJ2aXNpYmxlIiBpZD0iaSI+JiN4YTsgICA8cGF0aCBkPSJtMjIuODc1LTE4LjU3OGMtMC43MTA5NC0wLjMzMjAzLTEuNDE4LTAuNTc4MTItMi4xMjUtMC43MzQzOC0wLjcxMDk0LTAuMTU2MjUtMS40MTgtMC4yMzQzOC0yLjEyNS0wLjIzNDM4LTIuMTA1NSAwLTMuNzI2NiAwLjY3MTg4LTQuODU5NCAyLjAxNTYtMS4xMjUgMS4zNDM4LTEuNjg3NSAzLjI2NTYtMS42ODc1IDUuNzY1NnYxMS43NjZoLTguMTU2MnYtMjUuNTMxaDguMTU2MnY0LjIwMzFjMS4wNTA4LTEuNjc1OCAyLjI1MzktMi44OTQ1IDMuNjA5NC0zLjY1NjIgMS4zNjMzLTAuNzY5NTMgMi45OTIyLTEuMTU2MiA0Ljg5MDYtMS4xNTYyIDAuMjY5NTMgMCAwLjU2NjQxIDAuMDExNzE5IDAuODkwNjIgMC4wMzEyNSAwLjMyMDMxIDAuMDIzNDM3IDAuNzg1MTYgMC4wNzQyMTkgMS4zOTA2IDAuMTU2MjV6Ii8+JiN4YTsgIDwvc3ltYm9sPiYjeGE7ICA8c3ltYm9sIG92ZXJmbG93PSJ2aXNpYmxlIiBpZD0iYiI+JiN4YTsgICA8cGF0aCBkPSJtMjkuMzkxLTEyLjgyOHYyLjMyODFoLTE5LjA2MmMwLjE5NTMxIDEuOTA2MiAwLjg4MjgxIDMuMzM5OCAyLjA2MjUgNC4yOTY5IDEuMTg3NSAwLjk2MDk0IDIuODQzOCAxLjQzNzUgNC45Njg4IDEuNDM3NSAxLjcxODggMCAzLjQ3NjYtMC4yNTM5MSA1LjI4MTItMC43NjU2MiAxLjgwMDgtMC41MDc4MSAzLjY0ODQtMS4yODEyIDUuNTQ2OS0yLjMxMjV2Ni4yOTY5Yy0xLjkyOTcgMC43MzA0Ny0zLjg1OTQgMS4yNzczLTUuNzk2OSAxLjY0MDYtMS45Mjk3IDAuMzc1LTMuODU1NSAwLjU2MjUtNS43ODEyIDAuNTYyNS00LjYxNzIgMC04LjIwMzEtMS4xNzE5LTEwLjc2Ni0zLjUxNTZzLTMuODQzOC01LjYzMjgtMy44NDM4LTkuODc1YzAtNC4xNjQxIDEuMjUzOS03LjQ0MTQgMy43NjU2LTkuODI4MSAyLjUxOTUtMi4zODI4IDUuOTg0NC0zLjU3ODEgMTAuMzkxLTMuNTc4MSA0LjAwNzggMCA3LjIxODggMS4yMTA5IDkuNjI1IDMuNjI1IDIuNDA2MiAyLjQxOCAzLjYwOTQgNS42NDg0IDMuNjA5NCA5LjY4NzV6bS04LjM3NS0yLjcxODhjMC0xLjUzOTEtMC40NTMxMi0yLjc4NTItMS4zNTk0LTMuNzM0NC0wLjkwNjI1LTAuOTU3MDMtMi4wODk4LTEuNDM3NS0zLjU0NjktMS40Mzc1LTEuNTg1OSAwLTIuODcxMSAwLjQ0OTIyLTMuODU5NCAxLjM0MzgtMC45ODA0NyAwLjg4NjcyLTEuNTg5OCAyLjE2NDEtMS44MjgxIDMuODI4MXoiLz4mI3hhOyAgPC9zeW1ib2w+JiN4YTsgIDxzeW1ib2wgb3ZlcmZsb3c9InZpc2libGUiIGlkPSJoIj4mI3hhOyAgIDxwYXRoIGQ9Im0xNS4zNTktMTEuNDg0Yy0xLjY5OTIgMC0yLjk4MDUgMC4yOTI5Ny0zLjg0MzggMC44NzUtMC44NTU0NyAwLjU3NDIyLTEuMjgxMiAxLjQyMTktMS4yODEyIDIuNTQ2OSAwIDEuMDMxMiAwLjM0Mzc1IDEuODM5OCAxLjAzMTIgMi40MjE5IDAuNjk1MzEgMC41ODU5NCAxLjY2MDIgMC44NzUgMi44OTA2IDAuODc1IDEuNTMxMiAwIDIuODE2NC0wLjU0Njg4IDMuODU5NC0xLjY0MDYgMS4wNTA4LTEuMTAxNiAxLjU3ODEtMi40ODQ0IDEuNTc4MS00LjE0MDZ2LTAuOTM3NXptMTIuNDY5LTMuMDc4MXYxNC41NjJoLTguMjM0NHYtMy43ODEyYy0xLjA5MzggMS41NTQ3LTIuMzI0MiAyLjY4MzYtMy42ODc1IDMuMzkwNi0xLjM2NzIgMC42OTUzMS0zLjAyNzMgMS4wNDY5LTQuOTg0NCAxLjA0NjktMi42NDg0IDAtNC43OTY5LTAuNzY5NTMtNi40NTMxLTIuMzEyNS0xLjY0ODQtMS41MzkxLTIuNDY4OC0zLjUzOTEtMi40Njg4LTYgMC0yLjk4ODMgMS4wMzEyLTUuMTc5NyAzLjA5MzgtNi41NzgxIDIuMDYyNS0xLjQwNjIgNS4yOTY5LTIuMTA5NCA5LjcwMzEtMi4xMDk0aDQuNzk2OXYtMC42NDA2MmMwLTEuMjg5MS0wLjUxMTcyLTIuMjM0NC0xLjUzMTItMi44MjgxLTEuMDExNy0wLjYwMTU2LTIuNTkzOC0wLjkwNjI1LTQuNzUtMC45MDYyNS0xLjc1IDAtMy4zODI4IDAuMTc5NjktNC44OTA2IDAuNTMxMjUtMS41IDAuMzQzNzUtMi44OTg0IDAuODY3MTktNC4xODc1IDEuNTYyNXYtNi4yMTg4YzEuNzUtMC40MjU3OCAzLjUwMzktMC43NSA1LjI2NTYtMC45Njg3NSAxLjc1NzgtMC4yMTg3NSAzLjUyMzQtMC4zMjgxMiA1LjI5NjktMC4zMjgxMiA0LjU5MzggMCA3LjkxMDIgMC45MTQwNiA5Ljk1MzEgMi43MzQ0IDIuMDUwOCAxLjgxMjUgMy4wNzgxIDQuNzYxNyAzLjA3ODEgOC44NDM4eiIvPiYjeGE7ICA8L3N5bWJvbD4mI3hhOyAgPHN5bWJvbCBvdmVyZmxvdz0idmlzaWJsZSIgaWQ9ImciPiYjeGE7ICAgPHBhdGggZD0ibTEyLjgyOC0zMi43NjZ2Ny4yMzQ0aDguNDA2MnY1Ljg0MzhoLTguNDA2MnYxMC44MjhjMCAxLjE3OTcgMC4yMzQzOCAxLjk4MDUgMC43MDMxMiAyLjQwNjIgMC40NzY1NiAwLjQxNzk3IDEuNDE0MSAwLjYyNSAyLjgxMjUgMC42MjVoNC4xODc1djUuODI4MWgtN2MtMy4yMTg4IDAtNS41LTAuNjcxODgtNi44NDM4LTIuMDE1NnMtMi4wMTU2LTMuNjI1LTIuMDE1Ni02Ljg0Mzh2LTEwLjgyOGgtNC4wNjI1di01Ljg0MzhoNC4wNjI1di03LjIzNDR6Ii8+JiN4YTsgIDwvc3ltYm9sPiYjeGE7ICA8c3ltYm9sIG92ZXJmbG93PSJ2aXNpYmxlIiBpZD0iZiI+JiN4YTsgICA8cGF0aCBkPSJtMjEuMjgxLTIxLjc4MXYtMTMuNjcyaDguMjAzMXYzNS40NTNoLTguMjAzMXYtMy42ODc1Yy0xLjEyNSAxLjUtMi4zNjcyIDIuNjAxNi0zLjcxODggMy4yOTY5LTEuMzQzOCAwLjY5NTMxLTIuOTA2MiAxLjA0NjktNC42ODc1IDEuMDQ2OS0zLjE0ODQgMC01LjczMDUtMS4yNS03Ljc1LTMuNzUtMi4wMjM0LTIuNS0zLjAzMTItNS43MTA5LTMuMDMxMi05LjY0MDYgMC0zLjkzNzUgMS4wMDc4LTcuMTU2MiAzLjAzMTItOS42NTYyIDIuMDE5NS0yLjUgNC42MDE2LTMuNzUgNy43NS0zLjc1IDEuNzU3OCAwIDMuMzE2NCAwLjM1NTQ3IDQuNjcxOSAxLjA2MjUgMS4zNjMzIDAuNzEwOTQgMi42MDk0IDEuODA4NiAzLjczNDQgMy4yOTY5em0tNS4zNzUgMTYuNTE2YzEuNzUgMCAzLjA4Mi0wLjYzMjgxIDQtMS45MDYyIDAuOTE0MDYtMS4yODEyIDEuMzc1LTMuMTMyOCAxLjM3NS01LjU2MjUgMC0yLjQzNzUtMC40NjA5NC00LjI4OTEtMS4zNzUtNS41NjI1LTAuOTE3OTctMS4yODEyLTIuMjUtMS45MjE5LTQtMS45MjE5LTEuNzMwNSAwLTMuMDU4NiAwLjY0MDYyLTMuOTg0NCAxLjkyMTktMC45MTc5NyAxLjI3MzQtMS4zNzUgMy4xMjUtMS4zNzUgNS41NjI1IDAgMi40Mjk3IDAuNDU3MDMgNC4yODEyIDEuMzc1IDUuNTYyNSAwLjkyNTc4IDEuMjczNCAyLjI1MzkgMS45MDYyIDMuOTg0NCAxLjkwNjJ6Ii8+JiN4YTsgIDwvc3ltYm9sPiYjeGE7ICA8c3ltYm9sIG92ZXJmbG93PSJ2aXNpYmxlIiBpZD0iZSI+JiN4YTsgICA8cGF0aCBkPSJtMTcuNS01LjI2NTZjMS43NSAwIDMuMDgyLTAuNjMyODEgNC0xLjkwNjIgMC45MTQwNi0xLjI4MTIgMS4zNzUtMy4xMzI4IDEuMzc1LTUuNTYyNSAwLTIuNDM3NS0wLjQ2MDk0LTQuMjg5MS0xLjM3NS01LjU2MjUtMC45MTc5Ny0xLjI4MTItMi4yNS0xLjkyMTktNC0xLjkyMTlzLTMuMDkzOCAwLjY0ODQ0LTQuMDMxMiAxLjkzNzVjLTAuOTI5NjkgMS4yODEyLTEuMzkwNiAzLjEzMjgtMS4zOTA2IDUuNTQ2OSAwIDIuNDE4IDAuNDYwOTQgNC4yNjU2IDEuMzkwNiA1LjU0NjkgMC45Mzc1IDEuMjgxMiAyLjI4MTIgMS45MjE5IDQuMDMxMiAxLjkyMTl6bS01LjQyMTktMTYuNTE2YzEuMTI1LTEuNDg4MyAyLjM2NzItMi41ODU5IDMuNzM0NC0zLjI5NjkgMS4zNjMzLTAuNzA3MDMgMi45Mzc1LTEuMDYyNSA0LjcxODgtMS4wNjI1IDMuMTQ0NSAwIDUuNzI2NiAxLjI1IDcuNzUgMy43NSAyLjAxOTUgMi41IDMuMDMxMiA1LjcxODggMy4wMzEyIDkuNjU2MiAwIDMuOTI5Ny0xLjAxMTcgNy4xNDA2LTMuMDMxMiA5LjY0MDYtMi4wMjM0IDIuNS00LjYwNTUgMy43NS03Ljc1IDMuNzUtMS43ODEyIDAtMy4zNTU1LTAuMzUxNTYtNC43MTg4LTEuMDQ2OS0xLjM2NzItMC43MDcwMy0yLjYwOTQtMS44MDQ3LTMuNzM0NC0zLjI5Njl2My42ODc1aC04LjE1NjJ2LTM1LjQ1M2g4LjE1NjJ6Ii8+JiN4YTsgIDwvc3ltYm9sPiYjeGE7ICA8c3ltYm9sIG92ZXJmbG93PSJ2aXNpYmxlIiBpZD0iYSI+JiN4YTsgICA8cGF0aCBkPSJtMC41NjI1LTI1LjUzMWg4LjE3MTlsNi44NTk0IDE3LjMyOCA1LjgyODEtMTcuMzI4aDguMTU2MmwtMTAuNzM0IDI3Ljk1M2MtMS4wNzQyIDIuODMyLTIuMzI4MSA0LjgxNjQtMy43NjU2IDUuOTUzMS0xLjQzNzUgMS4xMzI4LTMuMzM1OSAxLjcwMzEtNS42ODc1IDEuNzAzMWgtNC43MTg4di01LjM1OTRoMi41NDY5YzEuMzgyOCAwIDIuMzkwNi0wLjIyNjU2IDMuMDE1Ni0wLjY3MTg4IDAuNjMyODEtMC40Mzc1IDEuMTI4OS0xLjIyNjYgMS40ODQ0LTIuMzU5NGwwLjIxODc1LTAuNzAzMTJ6Ii8+JiN4YTsgIDwvc3ltYm9sPiYjeGE7ICA8c3ltYm9sIG92ZXJmbG93PSJ2aXNpYmxlIiBpZD0iZCI+JiN4YTsgICA8cGF0aCBkPSJtNC4yODEyLTM0LjAzMWg4Ljc4MTJ2MzAuNzM0YzAgNC4yMjY2LTEuMTUyMyA3LjM5MDYtMy40NTMxIDkuNDg0NC0yLjMwNDcgMi4xMDE2LTUuNzg5MSAzLjE1NjItMTAuNDUzIDMuMTU2MmgtMS43ODEydi02LjYyNWgxLjM3NWMxLjgyMDMgMCAzLjE5NTMtMC41MTE3MiA0LjEyNS0xLjUzMTIgMC45Mzc1LTEuMDIzNCAxLjQwNjItMi41MTU2IDEuNDA2Mi00LjQ4NDR6Ii8+JiN4YTsgIDwvc3ltYm9sPiYjeGE7ICA8c3ltYm9sIG92ZXJmbG93PSJ2aXNpYmxlIiBpZD0ibiI+JiN4YTsgICA8cGF0aCBkPSJtMy42NDA2LTkuOTM3NXYtMTUuNTk0aDguMjAzMXYyLjU2MjVjMCAxLjM4NjctMC4wMDc4MTIgMy4xMjUtMC4wMTU2MjUgNS4yMTg4LTAuMDExNzE5IDIuMDg1OS0wLjAxNTYyNSAzLjQ3NjYtMC4wMTU2MjUgNC4xNzE5IDAgMi4wNTQ3IDAuMDUwNzgxIDMuNTMxMiAwLjE1NjI1IDQuNDM3NSAwLjEwMTU2IDAuODk4NDQgMC4yODUxNiAxLjU1NDcgMC41NDY4OCAxLjk2ODggMC4zMzIwMyAwLjUzMTI1IDAuNzY1NjIgMC45NDUzMSAxLjI5NjkgMS4yMzQ0IDAuNTM5MDYgMC4yODEyNSAxLjE2MDIgMC40MjE4OCAxLjg1OTQgMC40MjE4OCAxLjcwNyAwIDMuMDQ2OS0wLjY0ODQ0IDQuMDE1Ni0xLjk1MzEgMC45Njg3NS0xLjMxMjUgMS40NTMxLTMuMTI4OSAxLjQ1MzEtNS40NTMxdi0xMi42MDloOC4xNzE5djI1LjUzMWgtOC4xNzE5di0zLjY4NzVjLTEuMjMwNSAxLjQ5MjItMi41MzEyIDIuNTg5OC0zLjkwNjIgMy4yOTY5LTEuMzc1IDAuNjk1MzEtMi44OTA2IDEuMDQ2OS00LjU0NjkgMS4wNDY5LTIuOTQ5MiAwLTUuMTk1My0wLjg5ODQ0LTYuNzM0NC0yLjcwMzEtMS41NDMtMS44MTI1LTIuMzEyNS00LjQ0MTQtMi4zMTI1LTcuODkwNnoiLz4mI3hhOyAgPC9zeW1ib2w+JiN4YTsgIDxzeW1ib2wgb3ZlcmZsb3c9InZpc2libGUiIGlkPSJjIj4mI3hhOyAgIDxwYXRoIGQ9Im0zLjkyMTktMjUuNTMxaDguMTU2MnYyNS41MzFoLTguMTU2MnptMC05LjkyMTloOC4xNTYydjYuNjQwNmgtOC4xNTYyeiIvPiYjeGE7ICA8L3N5bWJvbD4mI3hhOyAgPHN5bWJvbCBvdmVyZmxvdz0idmlzaWJsZSIgaWQ9Im0iPiYjeGE7ICAgPHBhdGggZD0ibTI0LjU0Ny0yNC43MTl2Ni42NDA2Yy0xLjExNzItMC43NTc4MS0yLjIzMDUtMS4zMjAzLTMuMzQzOC0xLjY4NzUtMS4xMTcyLTAuMzYzMjgtMi4yNzM0LTAuNTQ2ODgtMy40Njg4LTAuNTQ2ODgtMi4yODEyIDAtNC4wNTg2IDAuNjY3OTctNS4zMjgxIDItMS4yNzM0IDEuMzM1OS0xLjkwNjIgMy4xOTUzLTEuOTA2MiA1LjU3ODEgMCAyLjM4NjcgMC42MzI4MSA0LjI0NjEgMS45MDYyIDUuNTc4MSAxLjI2OTUgMS4zMjQyIDMuMDQ2OSAxLjk4NDQgNS4zMjgxIDEuOTg0NCAxLjI2OTUgMCAyLjQ3NjYtMC4xODc1IDMuNjI1LTAuNTYyNSAxLjE0NDUtMC4zODI4MSAyLjIwNy0wLjk0NTMxIDMuMTg3NS0xLjY4NzV2Ni42NzE5Yy0xLjI4MTIgMC40Njg3NS0yLjU3ODEgMC44MTY0MS0zLjg5MDYgMS4wNDY5LTEuMzEyNSAwLjIzODI4LTIuNjMyOCAwLjM1OTM4LTMuOTUzMSAwLjM1OTM4LTQuNjA1NSAwLTguMjEwOS0xLjE3NTgtMTAuODEyLTMuNTMxMi0yLjU5MzgtMi4zNjMzLTMuODkwNi01LjY0ODQtMy44OTA2LTkuODU5NCAwLTQuMjA3IDEuMjk2OS03LjQ5MjIgMy44OTA2LTkuODU5NCAyLjYwMTYtMi4zNjMzIDYuMjA3LTMuNTQ2OSAxMC44MTItMy41NDY5IDEuMzMyIDAgMi42NDg0IDAuMTIxMDkgMy45NTMxIDAuMzU5MzggMS4zMDA4IDAuMjMwNDcgMi41OTc3IDAuNTg1OTQgMy44OTA2IDEuMDYyNXoiLz4mI3hhOyAgPC9zeW1ib2w+JiN4YTsgIDxzeW1ib2wgb3ZlcmZsb3c9InZpc2libGUiIGlkPSJsIj4mI3hhOyAgIDxwYXRoIGQ9Im00LjI4MTItMzQuMDMxaDIzLjY4OHY2LjY0MDZoLTE0LjkwNnY2LjMyODFoMTQuMDE2djYuNjQwNmgtMTQuMDE2djE0LjQyMmgtOC43ODEyeiIvPiYjeGE7ICA8L3N5bWJvbD4mI3hhOyAgPHN5bWJvbCBvdmVyZmxvdz0idmlzaWJsZSIgaWQ9ImsiPiYjeGE7ICAgPHBhdGggZD0ibTIzLjg1OS0yNC43MTl2Ni4xODc1Yy0xLjc1LTAuNzI2NTYtMy40Mzc1LTEuMjczNC01LjA2MjUtMS42NDA2LTEuNjI1LTAuMzYzMjgtMy4xNTYyLTAuNTQ2ODgtNC41OTM4LTAuNTQ2ODgtMS41NTQ3IDAtMi43MTA5IDAuMTk5MjItMy40Njg4IDAuNTkzNzUtMC43NSAwLjM4NjcyLTEuMTI1IDAuOTgwNDctMS4xMjUgMS43ODEyIDAgMC42NTYyNSAwLjI4NTE2IDEuMTY0MSAwLjg1OTM4IDEuNTE1NiAwLjU3MDMxIDAuMzQzNzUgMS41OTM4IDAuNjAxNTYgMy4wNjI1IDAuNzY1NjJsMS40Mzc1IDAuMjAzMTJjNC4xNzU4IDAuNTMxMjUgNi45ODQ0IDEuNDA2MiA4LjQyMTkgMi42MjUgMS40NDUzIDEuMjEwOSAyLjE3MTkgMy4xMTcyIDIuMTcxOSA1LjcxODggMCAyLjcxODgtMS4wMDc4IDQuNzYxNy0zLjAxNTYgNi4xMjUtMiAxLjM2NzItNC45OTIyIDIuMDQ2OS04Ljk2ODggMi4wNDY5LTEuNjg3NSAwLTMuNDMzNi0wLjEzNjcyLTUuMjM0NC0wLjQwNjI1LTEuNzkzLTAuMjU3ODEtMy42NDA2LTAuNjU2MjUtNS41NDY5LTEuMTg3NXYtNi4yMDMxYzEuNjI1IDAuNzkyOTcgMy4yODkxIDEuMzg2NyA1IDEuNzgxMiAxLjcxODggMC4zOTg0NCAzLjQ1NyAwLjU5Mzc1IDUuMjE4OCAwLjU5Mzc1IDEuNTkzOCAwIDIuNzg5MS0wLjIxODc1IDMuNTkzOC0wLjY1NjI1IDAuODEyNS0wLjQzNzUgMS4yMTg4LTEuMDkzOCAxLjIxODgtMS45Njg4IDAtMC43MjY1Ni0wLjI4MTI1LTEuMjY5NS0wLjg0Mzc1LTEuNjI1LTAuNTU0NjktMC4zNTE1Ni0xLjY1NjItMC42Mjg5MS0zLjMxMjUtMC44MjgxMmwtMS40Mzc1LTAuMTg3NWMtMy42MjUtMC40NDUzMS02LjE2OC0xLjI4NTItNy42MjUtMi41MTU2LTEuNDYwOS0xLjIzODMtMi4xODc1LTMuMTA5NC0yLjE4NzUtNS42MDk0IDAtMi43MDcgMC45MjE4OC00LjcxMDkgMi43NjU2LTYuMDE1NiAxLjg1MTYtMS4zMTI1IDQuNjk1My0xLjk2ODggOC41MzEyLTEuOTY4OCAxLjUgMCAzLjA3ODEgMC4xMTcxOSA0LjczNDQgMC4zNDM3NSAxLjY1NjIgMC4yMzA0NyAzLjQ1NyAwLjU4OTg0IDUuNDA2MiAxLjA3ODF6Ii8+JiN4YTsgIDwvc3ltYm9sPiYjeGE7ICA8c3ltYm9sIG92ZXJmbG93PSJ2aXNpYmxlIiBpZD0iaiI+JiN4YTsgICA8cGF0aCBkPSJtMjkuNTc4LTE1LjU0N3YxNS41NDdoLTguMjAzMXYtMTEuODQ0YzAtMi4yMzgzLTAuMDU0Njg4LTMuNzczNC0wLjE1NjI1LTQuNjA5NC0wLjA5Mzc1LTAuODMyMDMtMC4yNjE3Mi0xLjQ0NTMtMC41LTEuODQzOC0wLjMyNDIyLTAuNTMxMjUtMC43NjE3Mi0wLjk0MTQxLTEuMzEyNS0xLjIzNDQtMC41NDI5Ny0wLjMwMDc4LTEuMTY0MS0wLjQ1MzEyLTEuODU5NC0wLjQ1MzEyLTEuNjk5MiAwLTMuMDM5MSAwLjY1NjI1LTQuMDE1NiAxLjk2ODgtMC45Njg3NSAxLjMxMjUtMS40NTMxIDMuMTMyOC0xLjQ1MzEgNS40NTMxdjEyLjU2MmgtOC4xNTYydi0zNS40NTNoOC4xNTYydjEzLjY3MmMxLjIyNjYtMS40ODgzIDIuNTM1Mi0yLjU4NTkgMy45MjE5LTMuMjk2OSAxLjM4MjgtMC43MDcwMyAyLjkxMDItMS4wNjI1IDQuNTc4MS0xLjA2MjUgMi45NDUzIDAgNS4xNzk3IDAuOTA2MjUgNi43MDMxIDIuNzE4OCAxLjUzMTIgMS44MDQ3IDIuMjk2OSA0LjQyOTcgMi4yOTY5IDcuODc1eiIvPiYjeGE7ICA8L3N5bWJvbD4mI3hhOyA8L2RlZnM+JiN4YTsgPGc+JiN4YTsgIDxwYXRoIGQ9Im01MDYuMTggMjgwYzEuNjM2Ny0yLjgwNDcgMi40OTYxLTUuOTkyMiAyLjQ5MjItOS4yMzgzIDAuMDM1MTU2LTUuNTM5MS0yLjM4NjctMTAuODA1LTYuNjEzMy0xNC4zODMtNC4yMzA1LTMuNTc0Mi05LjgyNDItNS4wODU5LTE1LjI3Ny00LjEyODktNS40NTcgMC45NTMxMi0xMC4yMDMgNC4yODEyLTEyLjk2MSA5LjA4MmwtNTkuNTg2IDEwMy4yNGMxMi43NDYgMS4zOTQ1IDI0LjkxNCA2LjA2NjQgMzUuMzIgMTMuNTU5eiIvPiYjeGE7ICA8cGF0aCBkPSJtMjQ3LjMzIDQ5NC42N2MxNy4zNCAwLjAyNzM0MyAzNC42NjgtMC45MDYyNSA1MS45MDItMi44MDA4LTIzLjUxMi0yOC40OC0zOC4wMDQtNjMuMzItNDEuNjMzLTEwMC4wNy0zLjQyNTggMC4wNjY0MDYtNi44MTI1IDAuMjA3MDMtMTAuMjY2IDAuMjA3MDMtNjIuMzgzIDAtMTI3LjU4LTEyLjA2Ni0xNTguNjctMzQuODk4djkwLjg5OGMwIDE5LjQ4OCA2MC4zNjcgNDYuNjY4IDE1OC42NiA0Ni42Njh6bS0yNy41MjMtNjUuOTQxYzYuMDExNyAwLjMxMjUgMTIuMTI1IDAuNTExNzIgMTguMzQgMC42MDU0NyA1LjE1NjIgMC4wNDI5NjkgOS4zMDA4IDQuMjUzOSA5LjI1NzggOS40MTAyLTAuMDM5MDYyIDUuMTUyMy00LjI1IDkuMzAwOC05LjQwNjIgOS4yNTc4aC0wLjE0ODQ0Yy02LjQyMTktMC4xMDU0Ny0xMi43NTQtMC4zMTI1LTE4Ljk5Mi0wLjYyNWgtMC4wMDM5MDZjLTUuMTUyMy0wLjI1NzgxLTkuMTIxMS00LjY0NDUtOC44NjMzLTkuODAwOCAwLjI1NzgxLTUuMTUyMyA0LjY0NDUtOS4xMjUgOS43OTY5LTguODY3MnptLTkzLjUyLTQuOTkyMmMwLjYxNzE5LTIuMzk4NCAyLjE2NDEtNC40NTMxIDQuMjkzLTUuNzEwOSAyLjEzMjgtMS4yNTc4IDQuNjc5Ny0xLjYxNzIgNy4wNzQyLTEgMTQuOTc3IDMuNzUzOSAzMC4xNzIgNi41NTg2IDQ1LjUgOC4zOTg0IDUuMTUyMyAwLjMyMDMxIDkuMDcwMyA0Ljc1NzggOC43NSA5LjkwNjItMC4zMjAzMSA1LjE1MjMtNC43NTM5IDkuMDcwMy05LjkwNjIgOC43NS0wLjM5MDYyIDAtMC43ODEyNS0wLjAyMzQzNy0xLjE2OC0wLjA3NDIxOS0xNi4xMTMtMS45NDE0LTMyLjA5NC00LjkwNjItNDcuODMyLTguODc1LTIuNDAyMy0wLjYxNzE5LTQuNDYwOS0yLjE2NDEtNS43MjI3LTQuMzA0Ny0xLjI1NzgtMi4xMzY3LTEuNjEzMy00LjY5MTQtMC45ODgyOC03LjA4OTh6Ii8+JiN4YTsgIDxwYXRoIGQ9Im00MDYgNjUuMzMyYzAgMjUuNzczLTcxLjAzOSA0Ni42NjgtMTU4LjY3IDQ2LjY2OC04Ny42MjkgMC0xNTguNjYtMjAuODk1LTE1OC42Ni00Ni42NjggMC0yNS43NzMgNzEuMDM1LTQ2LjY2NCAxNTguNjYtNDYuNjY0IDg3LjYyOSAwIDE1OC42NyAyMC44OTEgMTU4LjY3IDQ2LjY2NCIvPiYjeGE7ICA8cGF0aCBkPSJtMjQ3LjMzIDM3My4zM2MzLjE0NDUgMCA2LjIxNDgtMC4xMjg5MSA5LjMzMi0wLjE4NzVsMC4wMDM5MDcgMC4wMDM5MDdjMC4wNDY4NzUtNDEuNDMgMTMuOTUzLTgxLjY1MiAzOS41MDgtMTE0LjI2LTE1Ljc5MyAxLjU3MDMtMzIuMDk4IDIuNDQ1My00OC44NDQgMi40NDUzLTYyLjM4MyAwLTEyNy41OC0xMi4wNjYtMTU4LjY3LTM0Ljg5OGwwLjAwMzkwNyAxMDAuMjNjMCAxOS40ODggNjAuMzY3IDQ2LjY2NCAxNTguNjYgNDYuNjY0em0tMjcuNTQzLTY2LjAxNmM2LjAzMTIgMC4yOTY4OCAxMi4xNTYgMC41IDE4LjM3OSAwLjYwNTQ3djAuMDAzOTA2YzUuMTU2MiAwLjA0Njg3NSA5LjI5NjkgNC4yNjE3IDkuMjUgOS40MTgtMC4wNDY4NzUgNS4xNTIzLTQuMjYxNyA5LjI5My05LjQxOCA5LjI1aC0wLjE2Nzk3Yy02LjQxMDItMC4xMTMyOC0xMi43MjctMC4zMjAzMS0xOC45NTctMC42MjV2LTAuMDAzOTA2Yy01LjE1MjMtMC4yNTc4MS05LjEyNS00LjY0NDUtOC44NjcyLTkuNzk2OSAwLjI1NzgxLTUuMTU2MiA0LjY0ODQtOS4xMjUgOS44MDA4LTguODY3MnptLTkzLjUtNC45MThjMC42MTcxOS0yLjM5NDUgMi4xNjQxLTQuNDQ5MiA0LjI5My01LjcwNyAyLjEzMjgtMS4yNjE3IDQuNjc5Ny0xLjYyMTEgNy4wNzQyLTEuMDAzOSAxNC45NzcgMy43NTM5IDMwLjE3MiA2LjU2MjUgNDUuNSA4LjQwMjMgNS4xNTIzIDAuMzIwMzEgOS4wNzAzIDQuNzUzOSA4Ljc1IDkuOTA2MnMtNC43NTM5IDkuMDcwMy05LjkwNjIgOC43NWMtMC4zOTA2MiAwLTAuNzgxMjUtMC4wMjczNDQtMS4xNjgtMC4wNzQyMTktMTYuMTEzLTEuOTQxNC0zMi4wOTQtNC45MDYyLTQ3LjgzMi04Ljg3NS0yLjQwMjMtMC42MTcxOS00LjQ2MDktMi4xNjgtNS43MjI3LTQuMzA0Ny0xLjI1NzgtMi4xNDA2LTEuNjEzMy00LjY5MTQtMC45ODgyOC03LjA5Mzh6Ii8+JiN4YTsgIDxwYXRoIGQ9Im0yNDcuMzMgMjQyLjY3YzIyLjgwNSAwLjA1MDc4MSA0NS41NzgtMS42MDU1IDY4LjEzMy00Ljk0OTIgMjUuMTc2LTIzLjkwNiA1Ni41MzUtNDAuMjkzIDkwLjUzNS00Ny4zMnYtOTQuNjI5Yy0zMS4wOSAyMi44MjgtOTYuMjgxIDM0Ljg5OC0xNTguNjcgMzQuODk4LTYyLjM4MyAwLTEyNy41Ny0xMi4wNy0xNTguNjYtMzQuODk4djEwMC4yM2MwIDE5LjQ4OCA2MC4zNjcgNDYuNjY4IDE1OC42NiA0Ni42Njh6bTY0LjE3Ni02OS4xOGMxNS4zMjgtMS44Mzk4IDMwLjUyNy00LjY0ODQgNDUuNS04LjM5ODQgNC45OTIyLTEuMjg5MSAxMC4wODYgMS43MTA5IDExLjM3NSA2LjcwMzEgMS4yODkxIDQuOTkyMi0xLjcxNDggMTAuMDg2LTYuNzA3IDExLjM3NS0xNS43MzggMy45Njg4LTMxLjcxNSA2LjkzMzYtNDcuODMyIDguODc1LTAuMzkwNjIgMC4wMzUxNTYtMC43ODUxNiAwLjA0Njg3NS0xLjE3NTggMC4wMzUxNTYtNC45MjE5LTAuMDE1NjI1LTguOTg0NC0zLjg0NzctOS4yODUyLTguNzU3OC0wLjMwNDY5LTQuOTEwMiAzLjI1MzktOS4yMTA5IDguMTM2Ny05LjgzMnptLTkxLjcxMSAzLjE2NDFjMTguMDk4IDAuOTMzNTkgMzYuOTY5IDAuOTMzNTkgNTUuMDY2IDBoMC4wMDM5MDdjNS4xNTIzLTAuMjU3ODEgOS41NDMgMy43MTA5IDkuODAwOCA4Ljg2NzIgMC4yNTc4MSA1LjE1MjMtMy43MTQ4IDkuNTQzLTguODY3MiA5LjgwMDgtOS4zMzIgMC40NjQ4NC0xOC45MzggMC42OTkyMi0yOC40NjUgMC42OTkyMi05LjUzMTIgMC0xOS4xMTMtMC4yMzQzOC0yOC40NjUtMC42OTkyMmgtMC4wMDM5MDZjLTUuMTU2Mi0wLjI1NzgxLTkuMTI1LTQuNjQ4NC04Ljg2NzItOS44MDA4IDAuMjU3ODEtNS4xNTYyIDQuNjQ0NS05LjEyNSA5LjgwMDgtOC44Njcyem0tOTMuNTA4LTQuOTE4YzAuNjE3MTktMi4zOTg0IDIuMTY0MS00LjQ1MzEgNC4yOTMtNS43MTA5IDIuMTMyOC0xLjI1NzggNC42Nzk3LTEuNjE3MiA3LjA3NDItMSAxNC45NzcgMy43NTM5IDMwLjE3MiA2LjU1ODYgNDUuNSA4LjM5ODQgNS4xNTIzIDAuMzIwMzEgOS4wNzAzIDQuNzU3OCA4Ljc1IDkuOTA2Mi0wLjMyMDMxIDUuMTUyMy00Ljc1MzkgOS4wNzAzLTkuOTA2MiA4Ljc1LTAuMzkwNjIgMC0wLjc4MTI1LTAuMDIzNDM3LTEuMTY4LTAuMDc0MjE5LTE2LjExMy0xLjk0MTQtMzIuMDk0LTQuOTA2Mi00Ny44MzItOC44NzUtMi40MDIzLTAuNjE3MTktNC40NjA5LTIuMTY0MS01LjcyMjctNC4zMDQ3LTEuMjU3OC0yLjEzNjctMS42MTMzLTQuNjkxNC0wLjk4ODI4LTcuMDg5OHoiLz4mI3hhOyAgPHBhdGggZD0ibTM0OS40NSAzMjQuNTkgNS4yMTg4IDkuNTQ2OSA1LjE5OTItOS41MTE3YzEuNTU4Ni0yLjgyODEgMy44ODY3LTUuMTU2MiA2LjcxODgtNi43MTg4bDkuNTQ2OS01LjIzNDQtOS41MTE3LTUuMTk5MmMtMi44MjgxLTEuNTYyNS01LjE1NjItMy44OTA2LTYuNzE4OC02LjcyMjdsLTUuMjM0NC05LjU0NjktNS4xOTkyIDkuNTExN2MtMS41NjI1IDIuODI4MS0zLjg5MDYgNS4xNjAyLTYuNzIyNyA2LjcxODhsLTkuNTQ2OSA1LjIzODMgOS41MTE3IDUuMTk5MmMyLjgzNTkgMS41NTQ3IDUuMTcxOSAzLjg4NjcgNi43MzgzIDYuNzE4OHoiLz4mI3hhOyAgPHBhdGggZD0ibTQ0My4zMyAyMDUuMzNjLTQ0LjU1NSAwLTg3LjI4NSAxNy43MDMtMTE4Ljc5IDQ5LjIwNy0zMS41MDQgMzEuNTA4LTQ5LjIwNyA3NC4yMzgtNDkuMjA3IDExOC43OSAwIDQ0LjU1OSAxNy43MDMgODcuMjg5IDQ5LjIwNyAxMTguOCAzMS41MDggMzEuNTA0IDc0LjIzOCA0OS4yMDMgMTE4Ljc5IDQ5LjIwMyA0NC41NTkgMCA4Ny4yODktMTcuNjk5IDExOC44LTQ5LjIwMyAzMS41MDQtMzEuNTA4IDQ5LjIwMy03NC4yMzggNDkuMjAzLTExOC44LTAuMDUwNzgxLTQ0LjUzOS0xNy43NjYtODcuMjQyLTQ5LjI2Mi0xMTguNzMtMzEuNDk2LTMxLjQ5Ni03NC4xOTUtNDkuMjExLTExOC43NC00OS4yNjZ6bS0xMjEuODYgMTIyLjE5Yy0zLjU2NjQtMS45NTMxLTYuMzEyNS01LjEyODktNy43MzA1LTguOTQxNC0xLjQyMTktMy44MTI1LTEuNDIxOS04LjAwNzggMC0xMS44MiAxLjQxOC0zLjgxMjUgNC4xNjQxLTYuOTg4MyA3LjczMDUtOC45NDUzbDExLjg3MS02LjUzNTIgNi40NzY2LTExLjg2M3YwLjAwMzkwNmMxLjk1Ny0zLjU2NjQgNS4xMzI4LTYuMzEyNSA4Ljk0NTMtNy43MzA1IDMuODEyNS0xLjQyMTkgOC4wMDc4LTEuNDIxOSAxMS44MiAwIDMuODEyNSAxLjQxOCA2Ljk4ODMgNC4xNjQxIDguOTQxNCA3LjczMDVsNi40NzY2IDExLjg2MyAxMS44NjMgNi40NzY2aDAuMDAzOTA3YzMuNTY2NCAxLjk1NyA2LjMwODYgNS4xMjg5IDcuNzMwNSA4Ljk0MTQgMS40MTggMy44MTI1IDEuNDE4IDguMDExNyAwIDExLjgyNC0xLjQyMTkgMy44MTI1LTQuMTY0MSA2Ljk4NDQtNy43MzA1IDguOTQxNGwtMTEuODcxIDYuNTM1Mi02LjQ3NjYgMTEuODYzaC0wLjAwMzkwNmMtMS45NTcgMy41NjY0LTUuMTI4OSA2LjMwODYtOC45NDE0IDcuNzMwNS0zLjgxMjUgMS40MTgtOC4wMTE3IDEuNDE4LTExLjgyNCAwLTMuODEyNS0xLjQyMTktNi45ODQ0LTQuMTY0MS04Ljk0MTQtNy43MzA1bC02LjUzNTItMTEuODcxem0xODYuMjcgMTc0Ljg3Yy0xLjEyMTEgMy4yMjI3LTMuMjIyNyA2LjAxMTctNi4wMTU2IDcuOTcyNy0yLjc4OTEgMS45NjQ4LTYuMTI1IDMtOS41MzUyIDIuOTY0OGgtODYuMTg0Yy0yNC45NjEgMC4wODk4NDQtNDguMzE2LTEyLjMwMS02Mi4yMzgtMzMuMDJzLTE2LjU3LTQ3LjAyMy03LjA1NDctNzAuMTAyYzkuNTExNy0yMy4wNzggMjkuOTMtMzkuODc1IDU0LjQwNi00NC43NjYgMC4zODI4MS0wLjA3NDIxOCAwLjc1NzgxLTAuMDg1OTM3IDEuMTI4OS0wLjE0ODQ0bDY1LjQxLTExMy4zYzYuNjY4LTExLjU1OSAxOC45OTYtMTguNjggMzIuMzQtMTguNjg0IDEzLjM0NCAwIDI1LjY3NiA3LjExMzMgMzIuMzQ4IDE4LjY2OCA2LjY3NTggMTEuNTU1IDYuNjc5NyAyNS43OTMgMC4wMDc4MTIgMzcuMzQ4bC01OC44MDEgMTAxLjg4aDAuMDAzOTA2YzExLjA1NSAxMy4zNDQgMTcuMTA5IDMwLjEyNSAxNy4xMTcgNDcuNDUzLTAuMjU3ODEgMTcuNzg5IDcuODc1IDM0LjY2NCAyMS45NDkgNDUuNTQ3IDIuNjQ4NCAyLjExMzMgNC41NjY0IDUuMDAzOSA1LjQ4NDQgOC4yNjU2IDAuOTE3OTcgMy4yNjE3IDAuNzg5MDYgNi43MzA1LTAuMzY3MTkgOS45MTQxem02Ni44MzYtMTI5LjkydjAuMDAzOTA2YzMuNTY2NCAxLjk1MzEgNi4zMTI1IDUuMTI4OSA3LjczMDUgOC45NDE0czEuNDE4IDguMDA3OCAwIDExLjgyLTQuMTY0MSA2Ljk4ODMtNy43MzA1IDguOTQ1M2wtMTEuODcxIDYuNTM1Mi02LjQ3NjYgMTEuODYzLTAuMDAzOTA2LTAuMDAzOTA2Yy0xLjk1MzEgMy41NjY0LTUuMTI4OSA2LjMxMjUtOC45NDE0IDcuNzMwNS0zLjgxMjUgMS40MjE5LTguMDA3OCAxLjQyMTktMTEuODIgMC0zLjgxNjQtMS40MTgtNi45ODgzLTQuMTY0MS04Ljk0NTMtNy43MzA1bC02LjUzNTItMTEuODcxLTExLjg2My02LjQ3NjZoMC4wMDM5MDdjLTMuNTcwMy0xLjk1Ny02LjMxMjUtNS4xMzI4LTcuNzM0NC04Ljk0NTMtMS40MTgtMy44MTI1LTEuNDE4LTguMDA3OCAwLTExLjgyIDEuNDIxOS0zLjgxMjUgNC4xNjQxLTYuOTg4MyA3LjczNDQtOC45NDUzbDExLjg3MS02LjUzNTIgNi40NzY2LTExLjg2M3YwLjAwMzkwNmMxLjk1Ny0zLjU2NjQgNS4xMzI4LTYuMzEyNSA4Ljk0NTMtNy43MzA1IDMuODEyNS0xLjQyMTkgOC4wMDc4LTEuNDIxOSAxMS44MiAwIDMuODEyNSAxLjQxOCA2Ljk4ODMgNC4xNjQxIDguOTQxNCA3LjczMDVsNi40NzY2IDExLjg2M3oiLz4mI3hhOyAgPHBhdGggZD0ibTQ0MS42MSAzOTUuNDNjLTEwLjA2Ni04LjI4NTItMjIuNzA3LTEyLjgwMS0zNS43NDYtMTIuNzY2LTMuNzU3OCAwLTcuNTA3OCAwLjM1OTM4LTExLjE5OSAxLjA3MDMtMTAuNzU0IDIuMTUyMy0yMC42MjkgNy40Mzc1LTI4LjM4MyAxNS4xOTEtNy43NTM5IDcuNzUzOS0xMy4wMzkgMTcuNjI1LTE1LjE5NSAyOC4zNzktMy4zMzIgMTYuNTk4IDAuOTQ5MjIgMzMuODEyIDExLjY2OCA0Ni45MTggNy4xNjggOC42ODc1IDE2LjgwMSAxNS4wMDQgMjcuNjI1IDE4LjExNy04LjAwNzgtOS45MTAyLTEyLjM3NS0yMi4yNy0xMi4zNzUtMzUuMDEydi05LjMzMmMwLTUuMTU2MiA0LjE3OTctOS4zMzIgOS4zMzItOS4zMzIgNS4xNTYyIDAgOS4zMzU5IDQuMTc1OCA5LjMzNTkgOS4zMzJ2OS4zMzJjMC4wMjczNDMgOS4wNTg2IDMuMzUxNiAxNy43OTcgOS4zNTE2IDI0LjU4MiA2LjAwMzkgNi43ODEyIDE0LjI3IDExLjE0OCAyMy4yNTggMTIuMjc3LTguOTg0NC0xMC4xNzYtMTMuOTQxLTIzLjI4NS0xMy45NDUtMzYuODU5di05LjMzMmMwLTUuMTU2MiA0LjE3OTctOS4zMzIgOS4zMzU5LTkuMzMyIDUuMTUyMyAwIDkuMzMyIDQuMTc1OCA5LjMzMiA5LjMzMnY5LjMzMmMwIDkuOTAyMyAzLjkzMzYgMTkuMzk4IDEwLjkzNCAyNi4zOTggNy4wMDM5IDcuMDAzOSAxNi41IDEwLjkzOCAyNi4zOTggMTAuOTM4aDE0LjkzNGMtMTUuNjc2LTE0LjM3NS0yNC41LTM0LjczNC0yNC4yNjYtNTYgMC4wMjczNDQtMTYuNzQyLTcuNDU3LTMyLjYwOS0yMC4zOTUtNDMuMjM0eiIvPiYjeGE7ICA8cGF0aCBkPSJtNTQ2LjU1IDM3NS40MS01LjIxODgtOS41NDY5LTUuMTk5MiA5LjUxMTdjLTEuNTU4NiAyLjgyODEtMy44ODY3IDUuMTU2Mi02LjcxODggNi43MTg4bC05LjU0NjkgNS4yMzQ0IDkuNTExNyA1LjE5OTJjMi44MjgxIDEuNTYyNSA1LjE1NjIgMy44OTA2IDYuNzE4OCA2LjcyMjdsNS4yMzQ0IDkuNTQ2OSA1LjE5OTItOS41MTE3YzEuNTYyNS0yLjgyODEgMy44OTA2LTUuMTYwMiA2LjcyMjctNi43MTg4bDkuNTQ2OS01LjIzODMtOS41MTE3LTUuMTk5MmMtMi44MzU5LTEuNTU0Ny01LjE3MTktMy44ODY3LTYuNzM4My02LjcxODh6Ii8+JiN4YTsgIDx1c2UgeGxpbms6aHJlZj0iI28iIHk9IjcwMCIgeD0iNzAiLz4mI3hhOyAgPHVzZSB4bGluazpocmVmPSIjaSIgeT0iNzAwIiB4PSIxMDQuMjUiLz4mI3hhOyAgPHVzZSB4bGluazpocmVmPSIjYiIgeT0iNzAwIiB4PSIxMjcuMjYxNzE5Ii8+JiN4YTsgIDx1c2UgeGxpbms6aHJlZj0iI2giIHk9IjcwMCIgeD0iMTU4LjkxNDA2MiIvPiYjeGE7ICA8dXNlIHhsaW5rOmhyZWY9IiNnIiB5PSI3MDAiIHg9IjE5MC40MDIzNDQiLz4mI3hhOyAgPHVzZSB4bGluazpocmVmPSIjYiIgeT0iNzAwIiB4PSIyMTIuNzEwOTM3Ii8+JiN4YTsgIDx1c2UgeGxpbms6aHJlZj0iI2YiIHk9IjcwMCIgeD0iMjQ0LjM2MzI4MSIvPiYjeGE7ICA8dXNlIHhsaW5rOmhyZWY9IiNlIiB5PSI3MDAiIHg9IjI5NC4wMTU2MjUiLz4mI3hhOyAgPHVzZSB4bGluazpocmVmPSIjYSIgeT0iNzAwIiB4PSIzMjcuNDE3OTY5Ii8+JiN4YTsgIDx1c2UgeGxpbms6aHJlZj0iI2QiIHk9IjcwMCIgeD0iMzc0LjA4NTkzOCIvPiYjeGE7ICA8dXNlIHhsaW5rOmhyZWY9IiNuIiB5PSI3MDAiIHg9IjM5MS40NDkyMTkiLz4mI3hhOyAgPHVzZSB4bGluazpocmVmPSIjYyIgeT0iNzAwIiB4PSI0MjQuNjcxODc1Ii8+JiN4YTsgIDx1c2UgeGxpbms6aHJlZj0iI20iIHk9IjcwMCIgeD0iNDQwLjY2Nzk2OSIvPiYjeGE7ICA8dXNlIHhsaW5rOmhyZWY9IiNhIiB5PSI3MDAiIHg9IjQ2OC4zMjgxMjUiLz4mI3hhOyAgPHVzZSB4bGluazpocmVmPSIjbCIgeT0iNzAwIiB4PSI1MTQuOTk2MDk0Ii8+JiN4YTsgIDx1c2UgeGxpbms6aHJlZj0iI2MiIHk9IjcwMCIgeD0iNTQ2Ljg3NSIvPiYjeGE7ICA8dXNlIHhsaW5rOmhyZWY9IiNrIiB5PSI3MDAiIHg9IjU2Mi44NzEwOTQiLz4mI3hhOyAgPHVzZSB4bGluazpocmVmPSIjaiIgeT0iNzAwIiB4PSI1OTAuNjQ4NDM4Ii8+JiN4YTsgPC9nPiYjeGE7PC9zdmc+;" vertex="1" parent="1">
          <mxGeometry x="360" y="230" width="120" height="120" as="geometry" />
        </mxCell>
        <mxCell id="FLTwSqdSPj58lzpOjfa_-10" value="" style="rounded=0;whiteSpace=wrap;html=1;fontSize=16;" vertex="1" parent="1">
          <mxGeometry x="372.5" y="340" width="95" height="10" as="geometry" />
        </mxCell>
        <mxCell id="FLTwSqdSPj58lzpOjfa_-11" value="&lt;b&gt;Data Cleaning&lt;/b&gt;" style="text;html=1;align=center;verticalAlign=middle;resizable=0;points=[];autosize=1;strokeColor=none;fillColor=none;fontSize=16;" vertex="1" parent="1">
          <mxGeometry x="350" y="345" width="130" height="30" as="geometry" />
        </mxCell>
        <mxCell id="FLTwSqdSPj58lzpOjfa_-16" value="" style="edgeStyle=orthogonalEdgeStyle;rounded=0;orthogonalLoop=1;jettySize=auto;html=1;fontSize=16;" edge="1" parent="1" source="FLTwSqdSPj58lzpOjfa_-12" target="FLTwSqdSPj58lzpOjfa_-15">
          <mxGeometry relative="1" as="geometry" />
        </mxCell>
        <mxCell id="FLTwSqdSPj58lzpOjfa_-12" value="" style="shape=image;imageAspect=0;aspect=fixed;verticalLabelPosition=bottom;verticalAlign=top;fontSize=16;image=data:image/svg+xml,PHN2ZyB4bWxucz0iaHR0cDovL3d3dy53My5vcmcvMjAwMC9zdmciIHZpZXdCb3g9IjAgMCA2NCA2NCI+PGRlZnM+PHN0eWxlPi5jbHMtMXtmaWxsOiNlMGU1ZWI7fS5jbHMtMntmaWxsOiM5NGExYjI7fS5jbHMtM3tmaWxsOiNmNjRmN2Q7fS5jbHMtNHtmaWxsOiNmY2JmNGE7fS5jbHMtNXtmaWxsOiM0ZjlmZjY7fS5jbHMtNntmaWxsOiNiZWM3ZDY7fS5jbHMtN3tmaWxsOiM1ZTY5N2I7fS5jbHMtOHtmaWxsOiMzZjc2ZDM7fS5jbHMtOXtmaWxsOiMxODE4MWY7fTwvc3R5bGU+PC9kZWZzPjxnIGlkPSJEYXRhLTIiIGRhdGEtbmFtZT0iRGF0YSI+PHBvbHlnb24gcG9pbnRzPSI1Ni4zIDQ4LjMzIDU2LjMgMTMuMDQgOC4wNyAxMy4wNCA4LjA3IDUzLjA4IDU0LjE3IDUzLjA4IDU2LjMgNDguMzMiIGNsYXNzPSJjbHMtMSIvPjxwb2x5Z29uIHBvaW50cz0iOC4wNyA0NC42NSA4LjA3IDUzLjA4IDU0LjE3IDUzLjA4IDU2LjMgNDguMzMgNTYuMyA0NC42NSA4LjA3IDQ0LjY1IiBjbGFzcz0iY2xzLTIiLz48cGF0aCBkPSJNMjIuNjgsMTEuNjlBMTAuNjgsMTAuNjgsMCwxLDAsMzMuMzYsMjIuMzdIMjIuNjhaIiBjbGFzcz0iY2xzLTMiLz48cGF0aCBkPSJNMjYuNjYsNy43VjE4LjM4SDM3LjM0QTEwLjY4LDEwLjY4LDAsMCwwLDI2LjY2LDcuNyIgY2xhc3M9ImNscy00Ii8+PHBhdGggZD0iTTQyLjQ2LDIzLjY1aDcuMDhhMi4zOCwyLjM4LDAsMSwxLDAsNC43NUg0Mi40NmEyLjM4LDIuMzgsMCwxLDEsMC00Ljc1IiBjbGFzcz0iY2xzLTUiLz48cGF0aCBkPSJNMzUuMDgsMzMuMTdINDkuNTRhMi4zOCwyLjM4LDAsMSwxLDAsNC43NkgzNS4wOGEyLjM4LDIuMzgsMCwxLDEsMC00Ljc2IiBjbGFzcz0iY2xzLTUiLz48cG9seWdvbiBwb2ludHM9IjU2LjMgNDguMzMgNTYuMyAxMy4wNCA0OC4xIDEzLjA0IDQ4LjEgNTMuMDggNTUuOTQgNTMuMDggNTYuMyA0OC4zMyIgY2xhc3M9ImNscy02Ii8+PHBvbHlnb24gcG9pbnRzPSI0OC4xIDQ0LjY1IDQ4LjEgNTMuMDggNTUuOTQgNTMuMDggNTYuMyA0OC4zMyA1Ni4zIDQ0LjY1IDQ4LjEgNDQuNjUiIGNsYXNzPSJjbHMtNyIvPjxwYXRoIGQ9Ik00LDQ4LjMzdjQuNTJhMy40NCwzLjQ0LDAsMCwwLDMuNDUsMy40NGg0OS4xQTMuNDQsMy40NCwwLDAsMCw2MCw1Mi44NVY0OC4zM0g0Mi44OFY1MGExLjU5LDEuNTksMCwwLDEtMS41OSwxLjU5SDIyLjcxQTEuNTksMS41OSwwLDAsMSwyMS4xMiw1MFY0OC4zM1oiIGNsYXNzPSJjbHMtNiIvPjxwYXRoIGQ9Ik01Mi44Nyw0OC4zM3Y0LjUyYTMuNDQsMy40NCwwLDAsMS0zLjQ1LDMuNDRoNy4xM0EzLjQ0LDMuNDQsMCwwLDAsNjAsNTIuODVWNDguMzNaIiBjbGFzcz0iY2xzLTIiLz48cGF0aCBkPSJNNDguMSwzMy4xN3Y0Ljc2aDEuNDRhMi4zOCwyLjM4LDAsMSwwLDAtNC43NloiIGNsYXNzPSJjbHMtOCIvPjxwYXRoIGQ9Ik00OC4xLDIzLjY1djQuNzZoMS40NGEyLjM4LDIuMzgsMCwxLDAsMC00Ljc2WiIgY2xhc3M9ImNscy04Ii8+PHBhdGggZD0iTTYwLDQ3LjMzSDU3LjNWMTNhMSwxLDAsMCwwLTEtMUgzNi40NmExMS43LDExLjcsMCwwLDAtOS44LTUuMzMsMSwxLDAsMCwwLTEsMVYxMmgtMnYtLjM1YTEsMSwwLDAsMC0xLTFBMTEuNjMsMTEuNjMsMCwwLDAsMTcuMjMsMTJINy43YTEsMSwwLDAsMC0xLDFWNDcuMzNINGExLDEsMCwwLDAtMSwxdjQuNTJhNC40NCw0LjQ0LDAsMCwwLDQuNDUsNC40NGg0OS4xQTQuNDQsNC40NCwwLDAsMCw2MSw1Mi44NVY0OC4zM0ExLDEsMCwwLDAsNjAsNDcuMzNaTTI3LjY2LDguNzZhOS42OSw5LjY5LDAsMCwxLDguNjMsOC42MkgyNy42NlptLTUsMTQuNjFIMzIuM0E5LjY4LDkuNjgsMCwxLDEsMjEuNjgsMTIuNzR2OS42M0ExLDEsMCwwLDAsMjIuNjgsMjMuMzdaTTE0LjUsMTRhMTEuNjgsMTEuNjgsMCwxLDAsMTkuODYsOC4zMywxLDEsMCwwLDAtMS0xSDIzLjY4VjE0aDJ2NC4zNGExLDEsMCwwLDAsMSwxSDM3LjM0YTEsMSwwLDAsMCwxLTFBMTEuNjUsMTEuNjUsMCwwLDAsMzcuNSwxNEg1NS4zVjQzLjY1SDguN1YxNFpNOC43LDQ1LjY1SDU1LjN2MS42OEg0Mi44OGExLDEsMCwwLDAtMSwxVjUwYS42LjYsMCwwLDEtLjU5LjU5SDIyLjcxYS42LjYsMCwwLDEtLjU5LS41OVY0OC4zM2ExLDEsMCwwLDAtMS0xSDguN1pNNTksNTIuODVhMi40NSwyLjQ1LDAsMCwxLTIuNDUsMi40NEg3LjQ1QTIuNDUsMi40NSwwLDAsMSw1LDUyLjg1VjQ5LjMzSDIwLjEyVjUwYTIuNiwyLjYsMCwwLDAsMi41OSwyLjU5SDQxLjI5QTIuNiwyLjYsMCwwLDAsNDMuODgsNTB2LS43MUg1OVoiIGNsYXNzPSJjbHMtOSIvPjxwYXRoIGQ9Ik00Mi40NiwyOS40aDcuMDhhMy4zOCwzLjM4LDAsMSwwLDAtNi43NUg0Mi40NmEzLjM4LDMuMzgsMCwxLDAsMCw2Ljc1Wm0wLTQuNzVoNy4wOGExLjM4LDEuMzgsMCwxLDEsMCwyLjc1SDQyLjQ2YTEuMzgsMS4zOCwwLDEsMSwwLTIuNzVaIiBjbGFzcz0iY2xzLTkiLz48cGF0aCBkPSJNMzUuMDgsMzguOTNINDkuNTRhMy4zOCwzLjM4LDAsMSwwLDAtNi43NkgzNS4wOGEzLjM4LDMuMzgsMCwwLDAsMCw2Ljc2Wm0wLTQuNzZINDkuNTRhMS4zOCwxLjM4LDAsMSwxLDAsMi43NkgzNS4wOGExLjM4LDEuMzgsMCwwLDEsMC0yLjc2WiIgY2xhc3M9ImNscy05Ii8+PC9nPjwvc3ZnPg==;" vertex="1" parent="1">
          <mxGeometry x="510" y="225" width="130" height="130" as="geometry" />
        </mxCell>
        <mxCell id="FLTwSqdSPj58lzpOjfa_-14" value="&lt;b&gt;Data Labeling&lt;/b&gt;" style="text;html=1;align=center;verticalAlign=middle;resizable=0;points=[];autosize=1;strokeColor=none;fillColor=none;fontSize=16;" vertex="1" parent="1">
          <mxGeometry x="505" y="345" width="130" height="30" as="geometry" />
        </mxCell>
        <mxCell id="FLTwSqdSPj58lzpOjfa_-15" value="" style="shape=image;imageAspect=0;aspect=fixed;verticalLabelPosition=bottom;verticalAlign=top;fontSize=16;image=data:image/svg+xml,PHN2ZyB4bWxucz0iaHR0cDovL3d3dy53My5vcmcvMjAwMC9zdmciIHhtbDpzcGFjZT0icHJlc2VydmUiIHdpZHRoPSIxMDAlIiB2aWV3Qm94PSIwIDAgNTEyIDUxMiIgdmVyc2lvbj0iMS4xIiBzdHlsZT0iZmlsbC1ydWxlOmV2ZW5vZGQ7Y2xpcC1ydWxlOmV2ZW5vZGQ7c3Ryb2tlLWxpbmVqb2luOnJvdW5kO3N0cm9rZS1taXRlcmxpbWl0OjI7IiBpZD0ic3ZnMjc5MyIgaGVpZ2h0PSIxMDAlIj48ZGVmcyBpZD0iZGVmczI3OTciLz48ZyB0cmFuc2Zvcm09InRyYW5zbGF0ZSgtMzA3MiwtMC4wMDExNSkiIHN0eWxlPSJkaXNwbGF5OmlubGluZSIgaWQ9Il8wNC1EYXRhIj48ZyB0cmFuc2Zvcm09InRyYW5zbGF0ZSgzMjEyLjU4LDMxMC43NDMpIiBpZD0iZzI3MTUiPjxwYXRoIHN0eWxlPSJmaWxsLXJ1bGU6bm9uemVybyIgaWQ9InBhdGgyNzEzIiBkPSJtIDAsLTI0OS4zNjMgdiAxMjQuNjc2IGMgMCwwLjQ5NyAwLjAyNSwwLjk5MyAwLjA3NSwxLjQ4OCAwLjAyMSwwLjIxMiAwLjA2MSwwLjQxOCAwLjA5MSwwLjYyOCAwLjAzOCwwLjI3NCAwLjA3LDAuNTUgMC4xMjUsMC44MjIgMC4wNDksMC4yNDUgMC4xMTYsMC40ODMgMC4xNzcsMC43MjMgMC4wNTgsMC4yMzQgMC4xMSwwLjQ3IDAuMTc5LDAuNzAxIDAuMDczLDAuMjM3IDAuMTYyLDAuNDY2IDAuMjQ2LDAuNjk4IDAuMDgyLDAuMjMgMC4xNTcsMC40NjEgMC4yNTEsMC42ODcgMC4wODksMC4yMTggMC4xOTYsMC40MjYgMC4yOTUsMC42MzkgMC4xMSwwLjIzMSAwLjIxMiwwLjQ2MyAwLjMzMywwLjY5MSAwLjExLDAuMjAzIDAuMjM0LDAuMzk2IDAuMzUyLDAuNTk1IDAuMTMzLDAuMjIxIDAuMjU5LDAuNDQ3IDAuNDAzLDAuNjYzIDAuMTQ3LDAuMjE5IDAuMzExLDAuNDI2IDAuNDY5LDAuNjM3IDAuMTM1LDAuMTgxIDAuMjYsMC4zNjYgMC40MDQsMC41NCAwLjMxNCwwLjM4MiAwLjY0NCwwLjc1IDAuOTk0LDEuMSBMIDkyLjUyLC0yNS45NDkgQyA3MS4xNTcsLTkuMTQgNDQuMjI5LDAuODk4IDE1LDAuODk4IGMgLTY5LjI0NSwwIC0xMjUuNTgsLTU2LjMzNSAtMTI1LjU4LC0xMjUuNTc5IDAsLTY0LjE3IDQ4LjM4MSwtMTE3LjI0NSAxMTAuNTgsLTEyNC42ODIgbSAxMzkuNjgxLDEwOS42ODIgSCAzMCB2IC0xMDkuNjgyIGMgNTcuMjc5LDYuODUgMTAyLjgzMiw1Mi40MDIgMTA5LjY4MSwxMDkuNjgyIG0gLTI1Ljk0OSw5Mi41MTkgLTYyLjUxOSwtNjIuNTE5IGggODguNDY4IGMgLTIuOCwyMy40MTEgLTEyLjA1OCw0NC44NjcgLTI1Ljk0OSw2Mi41MTkgTSAxNSwzMC44OTggYyA4NS43ODcsMCAxNTUuNTgsLTY5Ljc5MyAxNTUuNTgsLTE1NS41NzkgMCwtODUuNzg3IC02OS43OTMsLTE1NS41OCAtMTU1LjU4LC0xNTUuNTggLTg1Ljc4NywwIC0xNTUuNTgsNjkuNzkzIC0xNTUuNTgsMTU1LjU4IDAsODUuNzg2IDY5Ljc5MywxNTUuNTc5IDE1NS41OCwxNTUuNTc5Ii8+PC9nPjxnIHRyYW5zZm9ybT0idHJhbnNsYXRlKDM0MTYuOTEsNTYuNTkwNikiIGlkPSJnMjcxOSI+PHBhdGggc3R5bGU9ImZpbGwtcnVsZTpub256ZXJvIiBpZD0icGF0aDI3MTciIGQ9Im0gMCwzMCBoIDIwLjI0IGMgOC4yODQsMCAxNSwtNi43MTYgMTUsLTE1IDAsLTguMjg0IC02LjcxNiwtMTUgLTE1LC0xNSBIIDAgYyAtOC4yODQsMCAtMTUsNi43MTYgLTE1LDE1IDAsOC4yODQgNi43MTYsMTUgMTUsMTUiLz48L2c+PGcgdHJhbnNmb3JtPSJ0cmFuc2xhdGUoMzQ4NS44OSw1Ni41OTA2KSIgaWQ9ImcyNzIzIj48cGF0aCBzdHlsZT0iZmlsbC1ydWxlOm5vbnplcm8iIGlkPSJwYXRoMjcyMSIgZD0ibSAwLDMwIGggODEuODIgYyA4LjI4NCwwIDE1LC02LjcxNiAxNSwtMTUgMCwtOC4yODQgLTYuNzE2LC0xNSAtMTUsLTE1IEggMCBjIC04LjI4NCwwIC0xNSw2LjcxNiAtMTUsMTUgMCw4LjI4NCA2LjcxNiwxNSAxNSwxNSIvPjwvZz48ZyB0cmFuc2Zvcm09InRyYW5zbGF0ZSgzNDE2LjkxLDEzMi45MDEpIiBpZD0iZzI3MjciPjxwYXRoIHN0eWxlPSJmaWxsLXJ1bGU6bm9uemVybyIgaWQ9InBhdGgyNzI1IiBkPSJtIDAsMzAgaCA2MC4yNCBjIDguMjg0LDAgMTUsLTYuNzE3IDE1LC0xNSAwLC04LjI4NSAtNi43MTYsLTE1IC0xNSwtMTUgSCAwIGMgLTguMjg0LDAgLTE1LDYuNzE1IC0xNSwxNSAwLDguMjgzIDYuNzE2LDE1IDE1LDE1Ii8+PC9nPjxnIHRyYW5zZm9ybT0idHJhbnNsYXRlKDM1NjcuNzEsMTYyLjkwMSkiIGlkPSJnMjczMSI+PHBhdGggc3R5bGU9ImZpbGwtcnVsZTpub256ZXJvIiBpZD0icGF0aDI3MjkiIGQ9Im0gMCwtMzAgaCAtNDEuODIgYyAtOC4yODQsMCAtMTUsNi43MTUgLTE1LDE1IDAsOC4yODMgNi43MTYsMTUgMTUsMTUgSCAwIEMgOC4yODQsMCAxNSwtNi43MTcgMTUsLTE1IDE1LC0yMy4yODUgOC4yODQsLTMwIDAsLTMwIi8+PC9nPjxnIHRyYW5zZm9ybT0idHJhbnNsYXRlKDM0MTYuOTEsMjA5LjIyKSIgaWQ9ImcyNzM1Ij48cGF0aCBzdHlsZT0iZmlsbC1ydWxlOm5vbnplcm8iIGlkPSJwYXRoMjczMyIgZD0ibSAwLDMwIGggMjAuMjQgYyA4LjI4NCwwIDE1LC02LjcxNiAxNSwtMTUgMCwtOC4yODQgLTYuNzE2LC0xNSAtMTUsLTE1IEggMCBjIC04LjI4NCwwIC0xNSw2LjcxNiAtMTUsMTUgMCw4LjI4NCA2LjcxNiwxNSAxNSwxNSIvPjwvZz48ZyB0cmFuc2Zvcm09InRyYW5zbGF0ZSgzNTY3LjcxLDIzOS4yMikiIGlkPSJnMjczOSI+PHBhdGggc3R5bGU9ImZpbGwtcnVsZTpub256ZXJvIiBpZD0icGF0aDI3MzciIGQ9Im0gMCwtMzAgaCAtODEuODIgYyAtOC4yODQsMCAtMTUsNi43MTYgLTE1LDE1IDAsOC4yODQgNi43MTYsMTUgMTUsMTUgSCAwIEMgOC4yODQsMCAxNSwtNi43MTYgMTUsLTE1IDE1LC0yMy4yODQgOC4yODQsLTMwIDAsLTMwIi8+PC9nPjxnIHRyYW5zZm9ybT0idHJhbnNsYXRlKDM0MTYuOTEsMjg1LjUzKSIgaWQ9ImcyNzQzIj48cGF0aCBzdHlsZT0iZmlsbC1ydWxlOm5vbnplcm8iIGlkPSJwYXRoMjc0MSIgZD0ibSAwLDMwIGggNDIuMjQgYyA4LjI4NCwwIDE1LC02LjcxNSAxNSwtMTUgMCwtOC4yODMgLTYuNzE2LC0xNSAtMTUsLTE1IEggMCBjIC04LjI4NCwwIC0xNSw2LjcxNyAtMTUsMTUgMCw4LjI4NSA2LjcxNiwxNSAxNSwxNSIvPjwvZz48ZyB0cmFuc2Zvcm09InRyYW5zbGF0ZSgzNTY3LjcxLDMxNS41MykiIGlkPSJnMjc0NyI+PHBhdGggc3R5bGU9ImZpbGwtcnVsZTpub256ZXJvIiBpZD0icGF0aDI3NDUiIGQ9Im0gMCwtMzAgaCAtNTkuODIgYyAtOC4yODQsMCAtMTUsNi43MTcgLTE1LDE1IDAsOC4yODUgNi43MTYsMTUgMTUsMTUgSCAwIEMgOC4yODQsMCAxNSwtNi43MTUgMTUsLTE1IDE1LC0yMy4yODMgOC4yODQsLTMwIDAsLTMwIi8+PC9nPjxnIHRyYW5zZm9ybT0idHJhbnNsYXRlKDM1NDYuNjksNDA4Ljk0NykiIGlkPSJnMjc1MSI+PHBhdGggc3R5bGU9ImZpbGwtcnVsZTpub256ZXJvIiBpZD0icGF0aDI3NDkiIGQ9Im0gMCwzNS4yNjggYyAtNC43MTEsNC43MTIgLTEwLjk3Myw3LjMwNiAtMTcuNjMyLDcuMzA2IGggLTE3OC4wMyB2IC00OS44OCBoIDE3OC4wMyBjIDYuNjU5LDAgMTIuOTIxLDIuNTk1IDE3LjYzMyw3LjMwNiA0LjcxMiw0LjcxMiA3LjMwNywxMC45NzUgNy4zMDcsMTcuNjM0IDAsNi41NjMgLTIuNjYzLDEyLjk5IC03LjMwOCwxNy42MzQgbSAtNDMwLjA4NiwtMTBlLTQgYyAtNC43MDUsLTQuNzA0IC03LjI5NiwtMTAuOTY3IC03LjI5NiwtMTcuNjMzIDAsLTYuNjY2IDIuNTkxLC0xMi45MjggNy4yOTYsLTE3LjYzMyA0LjcxMiwtNC43MTIgMTAuOTc5LC03LjMwNyAxNy42NDQsLTcuMzA3IGggNDcuMTkgdiA0OS44OCBoIC00Ny4xOSBjIC02LjY2NiwwIC0xMi45MzIsLTIuNTk1IC0xNy42NDQsLTcuMzA3IG0gMjA0LjQyNCw3LjMwNyBoIC0xMDkuNTkgdiAtNDkuODggaCAxMDkuNTkgeiBNIDIxLjIxNSwtMjEuMjEyIEMgMTAuODM3LC0zMS41OSAtMi45NTksLTM3LjMwNiAtMTcuNjMyLC0zNy4zMDYgaCAtMzk0LjgxIGMgLTE0LjY3OSwwIC0yOC40NzgsNS43MTYgLTM4Ljg1NywxNi4wOTQgLTEwLjM3MSwxMC4zNzEgLTE2LjA4MywyNC4xNjcgLTE2LjA4MywzOC44NDYgMCwxNC42OCA1LjcxMiwyOC40NzcgMTYuMDgzLDM4Ljg0NyAxMC4zNzgsMTAuMzc4IDI0LjE3OCwxNi4wOTMgMzguODU3LDE2LjA5MyBoIDM5NC44MSBjIDE0LjY3MywwIDI4LjQ3LC01LjcxNSAzOC44NDYsLTE2LjA5MyAxMC4zNzgsLTEwLjM3OCAxNi4wOTQsLTI0LjE3NCAxNi4wOTQsLTM4Ljg0NyAwLC0xNC42NzMgLTUuNzE2LC0yOC40NjkgLTE2LjA5MywtMzguODQ2Ii8+PC9nPjwvZz48L3N2Zz4=;" vertex="1" parent="1">
          <mxGeometry x="670" y="232.5" width="115" height="115" as="geometry" />
        </mxCell>
        <mxCell id="FLTwSqdSPj58lzpOjfa_-17" value="&lt;b&gt;Data Splitting&lt;/b&gt;" style="text;html=1;align=center;verticalAlign=middle;resizable=0;points=[];autosize=1;strokeColor=none;fillColor=none;fontSize=16;" vertex="1" parent="1">
          <mxGeometry x="655" y="345" width="130" height="30" as="geometry" />
        </mxCell>
      </root>
    </mxGraphModel>
  </diagram>
</mxfile>
